<?xml version="1.0" encoding="UTF-8" standalone="no"?>
<!DOCTYPE svg PUBLIC "-//W3C//DTD SVG 1.1//EN"
 "http://www.w3.org/Graphics/SVG/1.1/DTD/svg11.dtd">
<!-- Generated by graphviz version 2.40.1 (20161225.0304)
 -->
<!-- Title: G Pages: 1 -->
<svg width="210pt" height="505pt"
 viewBox="0.00 0.00 209.55 504.76" xmlns="http://www.w3.org/2000/svg" xmlns:xlink="http://www.w3.org/1999/xlink">
<g id="graph0" class="graph" transform="scale(1 1) rotate(0) translate(4 500.7645)">
<title>G</title>
<polygon fill="#ffffff" stroke="transparent" points="-4,4 -4,-500.7645 205.5521,-500.7645 205.5521,4 -4,4"/>
<!-- sample_bar -->
<g id="node1" class="node">
<title>sample_bar</title>
<ellipse fill="#c24747" stroke="#000000" cx="98.0728" cy="-90" rx="37.5967" ry="18"/>
<text text-anchor="middle" x="98.0728" y="-87" font-family="Helvetica,sans-Serif" font-size="10.00" fill="#ffffff">sample.bar</text>
</g>
<!-- sample -->
<g id="node2" class="node">
<title>sample</title>
<ellipse fill="#a83838" stroke="#000000" cx="131.0728" cy="-18" rx="27.6993" ry="18"/>
<text text-anchor="middle" x="131.0728" y="-15" font-family="Helvetica,sans-Serif" font-size="10.00" fill="#ffffff">sample</text>
</g>
<!-- sample_bar&#45;&gt;sample -->
<g id="edge1" class="edge">
<title>sample_bar&#45;&gt;sample</title>
<path fill="none" stroke="#000000" d="M106.2301,-72.2022C110.0548,-63.8574 114.6912,-53.7417 118.9179,-44.5197"/>
<polygon fill="#000000" stroke="#000000" points="122.1383,-45.8936 123.1232,-35.3446 115.7749,-42.9769 122.1383,-45.8936"/>
</g>
<!-- sample_bar_foobar -->
<g id="node3" class="node">
<title>sample_bar_foobar</title>
<ellipse fill="#ce3b3b" stroke="#000000" cx="36.0728" cy="-249.9411" rx="36.1458" ry="26.7407"/>
<text text-anchor="middle" x="36.0728" y="-256.9411" font-family="Helvetica,sans-Serif" font-size="10.00" fill="#ffffff">sample.</text>
<text text-anchor="middle" x="36.0728" y="-246.9411" font-family="Helvetica,sans-Serif" font-size="10.00" fill="#ffffff">bar.</text>
<text text-anchor="middle" x="36.0728" y="-236.9411" font-family="Helvetica,sans-Serif" font-size="10.00" fill="#ffffff">foobar</text>
</g>
<!-- sample_bar_foobar&#45;&gt;sample -->
<g id="edge2" class="edge">
<title>sample_bar_foobar&#45;&gt;sample</title>
<path fill="none" stroke="#000000" d="M26.341,-223.7807C19.5249,-200.5633 14.3107,-166.8713 31.0728,-144 68.7854,-92.5424 151.9409,-152.6334 164.0728,-90"/>
<path fill="none" stroke="#000000" d="M164.0728,-90C166.9258,-73.094 159.1711,-55.5761 150.4651,-42.0529"/>
<polygon fill="#000000" stroke="#000000" points="153.2966,-39.9943 144.7085,-33.7897 147.5529,-43.9956 153.2966,-39.9943"/>
</g>
<!-- sample_bar_baz -->
<g id="node7" class="node">
<title>sample_bar_baz</title>
<ellipse fill="#ac4949" stroke="#000000" cx="88.0728" cy="-162" rx="48.2898" ry="18"/>
<text text-anchor="middle" x="88.0728" y="-159" font-family="Helvetica,sans-Serif" font-size="10.00" fill="#ffffff">sample.bar.baz</text>
</g>
<!-- sample_bar_foobar&#45;&gt;sample_bar_baz -->
<g id="edge8" class="edge">
<title>sample_bar_foobar&#45;&gt;sample_bar_baz</title>
<path fill="none" stroke="#000000" d="M50.8348,-224.976C57.5635,-213.5965 65.5357,-200.1142 72.3739,-188.5497"/>
<polygon fill="#000000" stroke="#000000" points="75.4922,-190.1524 77.5694,-179.7631 69.4668,-186.5895 75.4922,-190.1524"/>
</g>
<!-- sample_bar_foobar_two -->
<g id="node4" class="node">
<title>sample_bar_foobar_two</title>
<ellipse fill="#d92626" stroke="#000000" cx="100.0728" cy="-353.8234" rx="36.1458" ry="33.8824"/>
<text text-anchor="middle" x="100.0728" y="-365.8234" font-family="Helvetica,sans-Serif" font-size="10.00" fill="#ffffff">sample.</text>
<text text-anchor="middle" x="100.0728" y="-355.8234" font-family="Helvetica,sans-Serif" font-size="10.00" fill="#ffffff">bar.</text>
<text text-anchor="middle" x="100.0728" y="-345.8234" font-family="Helvetica,sans-Serif" font-size="10.00" fill="#ffffff">foobar.</text>
<text text-anchor="middle" x="100.0728" y="-335.8234" font-family="Helvetica,sans-Serif" font-size="10.00" fill="#ffffff">two</text>
</g>
<!-- sample_bar_foobar_two&#45;&gt;sample -->
<g id="edge3" class="edge">
<title>sample_bar_foobar_two&#45;&gt;sample</title>
<path fill="none" stroke="#000000" d="M100.0728,-249.9411C106.9968,-202.1 155.6806,-209.6056 164.0728,-162"/>
<path fill="none" stroke="#000000" d="M164.0728,-162C169.6283,-130.4859 158.7479,-121.5538 164.0728,-90"/>
</g>
<!-- sample_bar_foobar_one -->
<g id="node5" class="node">
<title>sample_bar_foobar_one</title>
<ellipse fill="#bc2f2f" stroke="#000000" cx="164.0728" cy="-249.9411" rx="36.1458" ry="33.8824"/>
<text text-anchor="middle" x="164.0728" y="-261.9411" font-family="Helvetica,sans-Serif" font-size="10.00" fill="#ffffff">sample.</text>
<text text-anchor="middle" x="164.0728" y="-251.9411" font-family="Helvetica,sans-Serif" font-size="10.00" fill="#ffffff">bar.</text>
<text text-anchor="middle" x="164.0728" y="-241.9411" font-family="Helvetica,sans-Serif" font-size="10.00" fill="#ffffff">foobar.</text>
<text text-anchor="middle" x="164.0728" y="-231.9411" font-family="Helvetica,sans-Serif" font-size="10.00" fill="#ffffff">one</text>
</g>
<!-- sample_bar_foobar_two&#45;&gt;sample_bar_foobar_one -->
<g id="edge6" class="edge">
<title>sample_bar_foobar_two&#45;&gt;sample_bar_foobar_one</title>
<path fill="none" stroke="#000000" d="M123.6897,-315.4894C129.181,-306.5761 135.0266,-297.0878 140.5153,-288.1787"/>
<polygon fill="#000000" stroke="#000000" points="120.5069,-313.983 118.2414,-324.3328 126.4667,-317.6547 120.5069,-313.983"/>
<polygon fill="#000000" stroke="#000000" points="143.5933,-289.8553 145.8587,-279.5055 137.6335,-286.1836 143.5933,-289.8553"/>
</g>
<!-- sample_bar_foobar_two&#45;&gt;sample_bar_baz -->
<g id="edge9" class="edge">
<title>sample_bar_foobar_two&#45;&gt;sample_bar_baz</title>
<path fill="none" stroke="#000000" d="M100.0728,-249.9411C102.9607,-229.9873 99.7618,-207.4576 95.9437,-190.1977"/>
<polygon fill="#000000" stroke="#000000" points="99.2804,-189.104 93.5352,-180.2021 92.4751,-190.7437 99.2804,-189.104"/>
<path fill="none" stroke="#000000" d="M97.6124,-319.4912C96.7664,-299.1646 96.7403,-272.9665 100.0728,-249.9411"/>
</g>
<!-- sample_bar_foobar_one&#45;&gt;sample -->
<g id="edge4" class="edge">
<title>sample_bar_foobar_one&#45;&gt;sample</title>
<path fill="none" stroke="#000000" d="M161.33,-215.8754C160.7051,-199.4725 160.9716,-179.5918 164.0728,-162"/>
</g>
<!-- sample_foo -->
<g id="node6" class="node">
<title>sample_foo</title>
<ellipse fill="#c24747" stroke="#000000" cx="164.0728" cy="-478.7645" rx="37.4586" ry="18"/>
<text text-anchor="middle" x="164.0728" y="-475.7645" font-family="Helvetica,sans-Serif" font-size="10.00" fill="#ffffff">sample.foo</text>
</g>
<!-- sample_foo&#45;&gt;sample_bar_foobar_one -->
<g id="edge5" class="edge">
<title>sample_foo&#45;&gt;sample_bar_foobar_one</title>
<path fill="none" stroke="#000000" d="M164.0728,-460.4257C164.0728,-424.6831 164.0728,-344.7928 164.0728,-294.3631"/>
<polygon fill="#000000" stroke="#000000" points="167.5729,-294.0756 164.0728,-284.0756 160.5729,-294.0757 167.5729,-294.0756"/>
</g>
</g>
</svg>
